<svg width="48" height="48" viewBox="0 0 48 48" fill="none" xmlns="http://www.w3.org/2000/svg">
<g clip-path="url(#clip0_520_233)">
<path d="M14.0602 0.168278C11.5066 0.288758 9.76276 0.696278 8.23828 1.29532C6.66052 1.9102 5.32324 2.73532 3.99268 4.07068C2.66212 5.40604 1.84276 6.74428 1.2322 8.32444C0.641319 9.85228 0.240999 11.5976 0.128199 14.1526C0.0153989 16.7076 -0.00956108 17.5289 0.00291892 24.0464C0.0153989 30.5638 0.0441989 31.3808 0.168039 33.9411C0.289959 36.4942 0.696039 38.2376 1.29508 39.7625C1.91092 41.3403 2.73508 42.6771 4.07092 44.0081C5.40676 45.3392 6.74404 46.1566 8.32804 46.7681C9.85444 47.358 11.6002 47.7603 14.1548 47.8721C16.7093 47.984 17.5316 48.0099 24.0471 47.9974C30.5626 47.9849 31.3829 47.9561 33.9428 47.8347C36.5026 47.7132 38.2368 47.3043 39.7623 46.7081C41.34 46.0908 42.6778 45.2681 44.0079 43.9318C45.338 42.5955 46.1568 41.2563 46.7669 39.6752C47.3583 38.1488 47.76 36.403 47.8709 33.8504C47.9828 31.2886 48.0092 30.4707 47.9967 23.9542C47.9842 17.4377 47.9549 16.6208 47.8335 14.0614C47.712 11.502 47.3055 9.76396 46.7069 8.23804C46.0901 6.66028 45.2669 5.32444 43.9316 3.99244C42.5962 2.66044 41.256 1.84204 39.6754 1.2334C38.148 0.642518 36.4032 0.239798 33.8487 0.129398C31.2941 0.0189975 30.4719 -0.00932249 23.954 0.00315751C17.436 0.0156375 16.62 0.0434775 14.0602 0.168278ZM14.3405 43.5545C12.0005 43.4528 10.73 43.064 9.88324 42.7385C8.76196 42.3065 7.96324 41.7843 7.1194 40.9486C6.27556 40.1129 5.75716 39.3113 5.3194 38.1924C4.9906 37.3457 4.5946 36.0766 4.48516 33.7366C4.36612 31.2075 4.34116 30.4481 4.32724 24.0406C4.31332 17.6331 4.3378 16.8747 4.44868 14.3446C4.54852 12.0065 4.93972 10.7345 5.26468 9.88828C5.69668 8.76556 6.217 7.96828 7.0546 7.12492C7.8922 6.28156 8.6914 5.7622 9.81124 5.32444C10.657 4.9942 11.9261 4.60156 14.2652 4.4902C16.7962 4.3702 17.5546 4.3462 23.9612 4.33228C30.3677 4.31836 31.128 4.34236 33.66 4.45372C35.9981 4.55548 37.2706 4.94284 38.1159 5.26972C39.2376 5.70172 40.0359 6.2206 40.8792 7.05964C41.7226 7.89868 42.2424 8.695 42.6802 9.81724C43.0109 10.6606 43.4036 11.9292 43.514 14.2697C43.6344 16.8008 43.6618 17.5596 43.6733 23.9657C43.6848 30.3718 43.6623 31.1326 43.5514 33.6617C43.4492 36.0017 43.0613 37.2728 42.7354 38.1204C42.3034 39.2412 41.7826 40.0404 40.9445 40.8833C40.1064 41.7262 39.3082 42.2456 38.1879 42.6833C37.3431 43.0131 36.0725 43.4067 33.7354 43.518C31.2044 43.6371 30.446 43.662 24.037 43.676C17.628 43.6899 16.872 43.664 14.341 43.5545M33.9058 11.1732C33.9067 11.7429 34.0766 12.2995 34.3939 12.7726C34.7112 13.2457 35.1617 13.6141 35.6883 13.8311C36.215 14.0482 36.7942 14.1042 37.3527 13.9921C37.9112 13.8799 38.4239 13.6047 38.826 13.2012C39.2281 12.7976 39.5014 12.2839 39.6115 11.725C39.7216 11.1661 39.6635 10.5871 39.4444 10.0612C39.2254 9.53534 38.8554 9.08623 38.3811 8.77067C37.9069 8.45512 37.3497 8.2873 36.78 8.28844C36.0164 8.28996 35.2846 8.59472 34.7456 9.1357C34.2066 9.67668 33.9045 10.4096 33.9058 11.1732ZM11.677 24.0243C11.6904 30.8307 17.2181 36.3358 24.0231 36.3228C30.828 36.3099 36.337 30.7827 36.324 23.9763C36.3111 17.1699 30.782 11.6633 23.976 11.6768C17.1701 11.6902 11.664 17.2188 11.677 24.0243ZM15.9999 24.0156C15.9967 22.4334 16.4629 20.8857 17.3394 19.5683C18.2158 18.251 19.4632 17.2231 20.9239 16.6147C22.3845 16.0063 23.9928 15.8447 25.5452 16.1503C27.0977 16.4559 28.5247 17.215 29.6458 18.3317C30.7668 19.4483 31.5316 20.8723 31.8434 22.4235C32.1551 23.9748 31.9999 25.5837 31.3973 27.0467C30.7946 28.5097 29.7717 29.7612 28.4578 30.6429C27.144 31.5246 25.5982 31.9968 24.0159 32C22.9652 32.0022 21.9245 31.7974 20.953 31.3973C19.9815 30.9972 19.0984 30.4097 18.354 29.6683C17.6096 28.9268 17.0186 28.046 16.6147 27.0761C16.2107 26.1062 16.0018 25.0663 15.9999 24.0156Z" fill="white"/>
</g>
<defs>
<clipPath id="clip0_520_233">
<rect width="48" height="48" fill="white"/>
</clipPath>
</defs>
</svg>
