<?xml version="1.0" encoding="UTF-8"?>
<svg id="ESA_ROT" xmlns="http://www.w3.org/2000/svg" viewBox="0 0 99.21 58.68">
  <defs>
    <style>
      .cls-1 {
        fill: #fff;
      }

      .cls-2 {
        fill: #e30613;
      }
    </style>
  </defs>
  <polygon class="cls-2" points="99.21 19.8 14.17 19.8 0 48.15 85.04 48.15 99.21 19.8"/>
  <polygon class="cls-1" points="84.44 26.52 80.52 26.52 80.52 22.62 78.41 22.62 78.41 26.52 74.55 26.52 74.55 28.63 78.41 28.63 78.41 32.51 80.52 32.51 80.52 28.63 84.44 28.63 84.44 26.52"/>
  <path class="cls-1" d="M69.6,30.27c-.91,1.73-1.83,3.56-2.55,5.29h5.05c-.77-1.78-1.68-3.56-2.5-5.29h0ZM79.79,42.26h-4.4s-1.59-3.18-1.59-3.18h-8.48l-1.6,3.18h-4.32l7.51-15.65h5.36l7.53,15.65h0Z"/>
  <path class="cls-1" d="M37.5,26.59h-17.47v15.6h34.97c2.73,0,4.94-2.17,4.94-4.84s-2.21-4.82-4.94-4.82h-11.66c-.7,0-1.26-.53-1.26-1.22s.57-1.22,1.26-1.22h15.77v-3.52h-15.72c-2.73,0-4.94,2.16-4.94,4.84s2.21,4.82,4.94,4.82h11.66c.69,0,1.26.53,1.26,1.2s-.59,1.25-1.26,1.25h-30.51v-2.47h11.86v-3.7h-11.86v-2.45h12.97v-3.47Z"/>
</svg>